<?xml version="1.0" encoding="utf-8"?>
<!-- Generator: Adobe Illustrator 21.1.0, SVG Export Plug-In . SVG Version: 6.00 Build 0)  -->
<svg version="1.1" id="Layer_1" xmlns="http://www.w3.org/2000/svg" xmlns:xlink="http://www.w3.org/1999/xlink" x="0px" y="0px"
	 viewBox="0 0 119 79.9" style="enable-background:new 0 0 119 79.9;" xml:space="preserve">
<style type="text/css">
	.st0{fill:#D1D3D3;}
</style>
<g>
	<g>
		<path class="st0" d="M42.1,73.9h1.1v2.5h2.7v-2.5H47v5.9h-1.1v-2.5h-2.7v2.5h-1.1V73.9z"/>
		<path class="st0" d="M53.6,73.8c1.7,0,3.1,1.3,3.1,3c0,1.7-1.3,3.1-3.1,3.1c-1.7,0-3.1-1.4-3.1-3.1C50.6,75.1,51.9,73.8,53.6,73.8
			z M53.6,78.9c1.1,0,1.9-0.9,1.9-2.1c0-1.2-0.9-2-1.9-2c-1.1,0-1.9,0.9-1.9,2C51.7,78.1,52.5,78.9,53.6,78.9z"/>
		<path class="st0" d="M61.4,74.8h-1.9v-0.9h5v0.9h-1.9v5h-1.1V74.8z"/>
		<path class="st0" d="M67.7,73.9h3.5v0.9h-2.5v1.5h2v0.9h-2v1.6h2.6v0.9h-3.7V73.9z"/>
		<path class="st0" d="M75,73.9h1.1v5h2.6v0.9H75V73.9z"/>
	</g>
	<g>
		<path class="st0" d="M59.5,0c7.9,8,13.9,17.8,17.2,28.8c-1,0.2-2,0.5-2.9,0.7l0,0C70.5,19.1,64.9,9.8,57.5,2.1
			C58.1,1.4,58.8,0.7,59.5,0"/>
		<path class="st0" d="M67.7,0.2c5.6,6.3,10,13.6,13,21.6c0,0-1.9,0.6-2.9,0.8l0,0c-2.9-7.5-7-14.4-12.2-20.4l0,0
			C66.2,1.5,66.9,0.9,67.7,0.2"/>
		<path class="st0" d="M41.3,22.7c2.5-6.6,6-12.7,10.3-18.2c0.7,0.7,2,2.2,2,2.2c-5,6.6-8.9,14-11.4,22.2c1,0.2,2,0.5,2.9,0.7
			C47.6,22,51.1,15.1,55.7,9c0.7,0.8,1.9,2.5,1.9,2.5c-4.6,6.4-8.1,13.6-10.3,21.4c4,0.7,8,1,12.2,1c4.1,0,8.2-0.4,12.2-1
			c-0.8-2.9-1.8-5.6-3-8.4l0,0c-3,0.4-6.1,0.6-9.2,0.6c-1,0-1.9,0-2.9-0.1l0,0c-0.4,1-0.8,1.9-1.2,2.9l0,0c1.4,0.1,2.7,0.1,4.1,0.1
			c2.4,0,4.8-0.1,7.2-0.4c0.4,0.9,0.7,1.9,1,2.8l-0.1,0c-2.7,0.3-5.4,0.5-8.2,0.5c-2.8,0-5.6-0.2-8.3-0.5l0,0
			c2-5.9,4.8-11.3,8.2-16.3c1.7,2.5,3.3,5.2,4.7,7.9l3.3-0.3C63.5,13.5,58,6.2,51.3,0.2c-5.6,6.3-10,13.6-13,21.7
			C39.3,22.2,40.3,22.4,41.3,22.7z"/>
	</g>
	<g>
		<path class="st0" d="M12.4,58.7v-9.1L6.7,62.5H6.2L0.5,49.5v8.4v4.6H0v-4.6v-6.2v-3.5h2L7.2,60l5.2-11.9h2v3.5v7v3.8h-2.1V58.7z"
			/>
		<path class="st0" d="M36.6,62.5h-2.2c-0.8-1.8-1.1-2.6-1.1-2.6l-3.8-9.1l-2.4,6h4.1l-0.3,0.5h-4l-2,5.2h-0.8l5.9-14.3h0.4
			L36.6,62.5z"/>
		<path class="st0" d="M88.4,48.2v3.6v7v3.7h-2.1v-3.7v-7v-3.6H88.4z"/>
		<path class="st0" d="M119,48.2v3.6v7v3.7h-2.1v-3.7v-7v-3.6H119z"/>
		<path class="st0" d="M56.3,62.5h-2.2c-0.8-1.8-1.1-2.6-1.1-2.6l-3.8-9.1l-2.4,6h4.1l-0.3,0.5h-4l-2,5.2h-0.8l5.9-14.3h0.4
			L56.3,62.5z"/>
		<path class="st0" d="M74.6,56.4L74.6,56.4h-4l-0.3,0.5h4.3v2.1c0,0.6-0.1,1.2-0.3,1.6c-0.2,0.4-0.6,0.8-1.2,1.1
			c-0.6,0.3-1.2,0.4-1.9,0.4c-1.4,0-2.5-0.5-3.5-1.5c-0.9-1-1.4-2.8-1.4-5.2c0-2.5,0.5-4.2,1.5-5.1c1-1,2.1-1.5,3.4-1.5
			c1.3,0,2.3,0.4,3.2,1.3c0.3,0.2,0.5,0.5,0.7,0.8l0.5-0.5v-0.1c-1.2-1.3-2.7-2-4.5-2c-2.1,0-3.8,0.7-5.1,2.2
			c-1.3,1.5-1.9,3.2-1.9,5.2c0,2,0.7,3.7,1.9,4.9c1.3,1.3,3,1.9,4.9,1.9c1,0,2-0.2,3.2-0.7c2-1,2.4-2.3,2.4-3.2v-2.3H74.6z"/>
		<path class="st0" d="M106.1,57.8c-1.3-1.8-2.3-2.1-2.8-2.4c1.3-0.2,2.3-0.7,3-1.4c0.7-0.6,1-1.5,1-2.4c0-0.8-0.3-1.5-0.8-2
			c-0.5-0.6-1.2-0.9-2-1.2c-0.8-0.3-1.9-0.3-3.3-0.3h-3.1v14.3h2V48.8h0.9c1.7,0,2.8,0.2,3.3,0.8c0.5,0.6,0.7,1.4,0.7,2.3
			c0,0.6-0.1,1-0.2,1.4c-0.1,0.4-0.3,0.7-0.6,0.9c-1,0.8-3,1-3,1l-0.3,0.5c3.8,0,5.8,6.1,6,6.7h1.6
			C107.2,59.3,106.1,57.8,106.1,57.8z"/>
	</g>
</g>
</svg>
